<?xml version="1.0" standalone="no"?>
<!DOCTYPE svg PUBLIC "-//W3C//DTD SVG 20010904//EN"
 "http://www.w3.org/TR/2001/REC-SVG-20010904/DTD/svg10.dtd">
<svg version="1.0" xmlns="http://www.w3.org/2000/svg"
 width="700.000000pt" height="700.000000pt" viewBox="0 0 700.000000 700.000000"
 preserveAspectRatio="xMidYMid meet">
<metadata>
Created by potrace 1.11, written by Peter Selinger 2001-2013
</metadata>
<g transform="translate(0.000000,700.000000) scale(0.100000,-0.100000)"
fill="#000000" stroke="none">
<path d="M1437 6994 c-1 -1 -27 -5 -58 -8 -339 -39 -694 -216 -930 -463 -177
-185 -291 -375 -368 -610 -53 -161 -71 -277 -78 -485 l-5 -178 291 0 c160 0
291 3 292 8 0 4 2 63 4 132 5 212 27 316 100 466 97 201 260 363 463 463 65
31 171 67 226 76 17 3 45 8 61 12 17 3 93 7 170 8 l140 2 3 292 2 292 -155 -2
c-86 -2 -156 -4 -158 -5z"/>
<path d="M3387 6124 c-1 -1 -43 -5 -93 -8 -51 -4 -100 -8 -110 -10 -11 -2 -41
-7 -69 -10 -27 -4 -57 -9 -65 -11 -8 -2 -33 -6 -55 -10 -54 -8 -256 -61 -330
-87 -185 -64 -365 -147 -505 -231 -480 -290 -847 -707 -1069 -1215 -48 -111
-120 -319 -136 -397 -60 -279 -77 -419 -78 -630 -1 -116 7 -264 18 -335 2 -14
7 -45 10 -70 41 -299 157 -633 316 -910 76 -133 88 -151 186 -281 158 -211
281 -331 563 -552 17 -14 96 -66 184 -121 63 -40 324 -169 366 -181 14 -4 39
-13 55 -21 160 -72 485 -143 735 -161 150 -10 485 -3 509 11 3 2 32 7 64 10
32 4 64 9 70 11 7 2 29 7 51 10 50 7 212 48 296 75 328 104 654 287 915 514
262 227 487 518 635 820 94 194 140 314 196 521 10 37 54 269 58 310 68 622
-50 1180 -357 1690 -321 533 -834 942 -1432 1140 -84 28 -247 70 -305 80 -19
3 -57 10 -85 15 -100 19 -250 31 -418 34 -64 1 -118 1 -120 0z m338 -448 c33
-4 85 -11 115 -16 30 -5 69 -12 86 -15 147 -24 360 -97 539 -185 352 -172 634
-420 860 -755 142 -211 283 -553 321 -780 2 -16 9 -55 14 -86 30 -167 32 -526
5 -654 -2 -11 -6 -33 -9 -50 -12 -78 -30 -156 -57 -249 -194 -651 -668 -1170
-1299 -1421 -101 -40 -303 -100 -373 -110 -23 -4 -64 -11 -90 -16 -82 -15
-196 -23 -337 -23 -122 0 -306 11 -321 20 -3 1 -28 6 -55 9 -152 20 -410 105
-592 194 -281 139 -557 361 -742 597 -262 336 -412 697 -466 1124 -10 85 -12
345 -3 440 52 513 268 976 622 1333 111 111 138 135 242 212 44 33 82 63 83
68 2 4 7 7 12 7 5 0 32 16 62 36 92 62 328 171 468 218 145 49 337 90 465 101
44 4 81 8 82 9 6 5 314 -2 368 -8z"/>
<path d="M3250 5230 c-132 -21 -224 -43 -320 -77 -439 -152 -802 -477 -1007
-898 -65 -134 -132 -345 -148 -470 -4 -27 -9 -61 -12 -75 -8 -44 -11 -348 -3
-392 4 -24 11 -68 14 -98 4 -30 16 -90 27 -135 79 -314 237 -592 464 -820 87
-86 276 -239 315 -253 8 -3 33 -17 55 -31 139 -87 426 -188 587 -207 29 -3 72
-10 96 -14 45 -8 350 -6 392 3 14 3 48 8 75 12 123 15 338 84 481 154 176 86
326 193 468 335 77 77 226 256 226 271 0 3 16 29 35 59 108 170 201 426 236
651 17 114 19 362 3 480 -64 470 -310 892 -684 1172 -114 86 -152 108 -295
177 -163 78 -333 133 -470 151 -27 4 -61 9 -75 12 -66 13 -359 9 -460 -7z
m400 -574 c225 -29 464 -138 619 -282 l54 -51 -822 -822 -823 -823 -30 29
c-96 91 -211 290 -262 451 -78 248 -65 529 35 782 122 307 400 565 719 668 36
12 77 23 92 26 15 3 31 7 36 10 5 3 42 8 83 12 41 3 75 7 76 8 5 5 172 -1 223
-8z"/>
<path d="M6419 1743 c0 -5 -2 -66 -4 -138 -3 -149 -8 -192 -36 -294 -88 -328
-362 -602 -690 -690 -103 -28 -145 -33 -299 -36 l-135 -3 -3 -292 -2 -293 177
6 c188 7 203 8 323 33 419 89 785 346 1016 714 98 157 192 411 210 565 3 22 7
47 10 55 3 8 8 97 11 197 l6 183 -292 0 c-160 0 -291 -3 -292 -7z"/>
</g>
</svg>
